<?xml version="1.0" encoding="utf-8" standalone="no"?>
<!DOCTYPE svg PUBLIC "-//W3C//DTD SVG 1.1//EN"
  "http://www.w3.org/Graphics/SVG/1.1/DTD/svg11.dtd">
<svg xmlns:xlink="http://www.w3.org/1999/xlink" width="322.37568pt" height="266.112pt" viewBox="0 0 322.37568 266.112" xmlns="http://www.w3.org/2000/svg" version="1.1">
 <metadata>
  <rdf:RDF xmlns:dc="http://purl.org/dc/elements/1.1/" xmlns:cc="http://creativecommons.org/ns#" xmlns:rdf="http://www.w3.org/1999/02/22-rdf-syntax-ns#">
   <cc:Work>
    <dc:type rdf:resource="http://purl.org/dc/dcmitype/StillImage"/>
    <dc:date>2024-08-22T12:17:21.369986</dc:date>
    <dc:format>image/svg+xml</dc:format>
    <dc:creator>
     <cc:Agent>
      <dc:title>Matplotlib v3.8.3, https://matplotlib.org/</dc:title>
     </cc:Agent>
    </dc:creator>
   </cc:Work>
  </rdf:RDF>
 </metadata>
 <defs>
  <style type="text/css">*{stroke-linejoin: round; stroke-linecap: butt}</style>
 </defs>
 <g id="figure_1">
  <g id="patch_1">
   <path d="M 0 266.112 
L 322.37568 266.112 
L 322.37568 0 
L 0 0 
z
" style="fill: #ffffff"/>
  </g>
  <g id="axes_1">
   <g id="line2d_1">
    <path d="M 0 181.669948 
L 322.37568 164.999373 
" clip-path="url(#p9affff8f89)" style="fill: none; stroke: #666666; stroke-width: 1.5; stroke-linecap: square"/>
   </g>
   <g id="QuadContourSet_1">
    <path d="M 322.37568 256.440021 
L 302.83776 234.472096 
L 281.842288 212.352 
L 276.511146 206.976 
L 267.01824 197.698385 
L 253.752308 185.472 
L 247.48032 179.991411 
L 240.96768 174.564991 
L 234.308282 169.344 
L 227.9424 164.678063 
L 218.17344 158.490986 
L 214.91712 156.716805 
L 208.40448 153.858984 
L 205.14816 152.815085 
L 201.89184 152.026463 
L 198.63552 151.567647 
L 195.3792 151.421315 
L 192.12288 151.570143 
L 188.86656 151.996806 
L 185.61024 152.683981 
L 179.0976 154.57625 
L 172.58496 156.995472 
L 159.55968 162.487144 
L 149.79072 166.691569 
L 136.76544 171.876394 
L 133.50912 173.053115 
L 126.99648 175.292002 
L 120.133749 177.408 
L 113.9712 179.038505 
L 107.45856 180.512753 
L 100.94592 181.659787 
L 94.43328 182.484458 
L 87.92064 182.925036 
L 81.408 182.942333 
L 78.15168 182.782108 
L 74.89536 182.485336 
L 71.63904 182.054078 
L 68.38272 181.481595 
L 65.1264 180.761151 
L 61.87008 179.873657 
L 58.61376 178.776105 
L 55.151274 177.408 
L 52.10112 175.954152 
L 48.8448 174.162863 
L 45.544895 172.032 
L 42.07142 169.344 
L 39.07584 166.605832 
L 35.81952 162.991571 
L 34.494541 161.28 
L 32.5632 158.529401 
L 31.032555 155.904 
L 29.30688 152.482385 
L 28.487765 150.528 
L 27.522121 147.84 
L 26.717417 145.152 
L 26.05056 142.335427 
L 25.624079 139.776 
L 25.325476 137.088 
L 25.176174 134.4 
L 25.176174 131.712 
L 25.325476 129.024 
L 25.624079 126.336 
L 26.073654 123.648 
L 26.717417 120.96 
L 27.522121 118.272 
L 29.30688 113.629615 
L 29.639541 112.896 
L 31.032555 110.208 
L 32.602849 107.52 
L 35.81952 103.120429 
L 36.64451 102.144 
L 39.126574 99.456 
L 42.33216 96.547001 
L 45.58848 94.048763 
L 49.813123 91.392 
L 52.10112 90.157848 
L 55.35744 88.611512 
L 58.61376 87.335895 
L 62.651435 86.016 
L 65.1264 85.350849 
L 68.38272 84.630405 
L 71.63904 84.057922 
L 74.89536 83.626664 
L 78.188133 83.328 
L 81.408 83.169667 
L 87.92064 83.186964 
L 91.17696 83.352934 
L 97.6896 83.996214 
L 104.20224 84.988803 
L 110.71488 86.292148 
L 117.22752 87.91164 
L 123.74016 89.793902 
L 130.2528 91.9084 
L 136.76544 94.235606 
L 146.5344 98.09471 
L 156.30336 102.191633 
L 166.07232 106.425451 
L 175.84128 110.341579 
L 179.0976 111.53575 
L 183.748146 112.896 
L 185.61024 113.428019 
L 188.86656 114.115194 
L 192.12288 114.541857 
L 195.3792 114.690685 
L 198.63552 114.544353 
L 201.89184 114.085537 
L 205.14816 113.296915 
L 211.6608 110.940334 
L 218.330219 107.52 
L 222.752932 104.832 
L 224.68608 103.649058 
L 231.19872 99.100621 
L 237.788693 94.08 
L 244.409313 88.704 
L 250.73664 83.30629 
L 260.5056 74.531862 
L 273.794428 61.824 
L 283.29984 52.30814 
L 302.83776 31.639904 
L 316.727624 16.128 
L 322.37568 9.671979 
L 322.37568 9.671979 
" clip-path="url(#p9affff8f89)" style="fill: none; stroke: #000000; stroke-width: 1.5"/>
   </g>
   <g id="line2d_2">
    <path d="M 0 101.12256 
L 322.37568 195.1488 
" clip-path="url(#p9affff8f89)" style="fill: none; stroke: #000000; stroke-width: 1.5; stroke-linecap: square"/>
   </g>
   <g id="PathCollection_1">
    <defs>
     <path id="m4dc109c4bd" d="M 0 3 
C 0.795609 3 1.55874 2.683901 2.12132 2.12132 
C 2.683901 1.55874 3 0.795609 3 0 
C 3 -0.795609 2.683901 -1.55874 2.12132 -2.12132 
C 1.55874 -2.683901 0.795609 -3 0 -3 
C -0.795609 -3 -1.55874 -2.683901 -2.12132 -2.12132 
C -2.683901 -1.55874 -3 -0.795609 -3 0 
C -3 0.795609 -2.683901 1.55874 -2.12132 2.12132 
C -1.55874 2.683901 -0.795609 3 0 3 
z
" style="stroke: #000000"/>
    </defs>
    <g clip-path="url(#p9affff8f89)">
     <use xlink:href="#m4dc109c4bd" x="31.020607" y="110.170237" style="stroke: #000000"/>
     <use xlink:href="#m4dc109c4bd" x="181.136317" y="153.953986" style="stroke: #000000"/>
     <use xlink:href="#m4dc109c4bd" x="234.573316" y="169.539777" style="stroke: #000000"/>
    </g>
   </g>
   <g id="text_1">
    <!-- $P$ -->
    <g transform="translate(24.938047 102.186877) scale(0.2 -0.2)">
     <defs>
      <path id="CMMI12-50" d="M 1894 2022 
L 2970 2022 
C 3853 2022 4736 2673 4736 3400 
C 4736 3898 4314 4352 3507 4352 
L 1530 4352 
C 1408 4352 1350 4352 1350 4230 
C 1350 4166 1408 4166 1504 4166 
C 1894 4166 1894 4115 1894 4045 
C 1894 4032 1894 3994 1869 3898 
L 1005 471 
C 947 249 934 185 486 185 
C 365 185 301 185 301 70 
C 301 0 358 0 397 0 
C 518 0 646 12 768 12 
L 1517 12 
C 1638 12 1773 0 1894 0 
C 1946 0 2016 0 2016 121 
C 2016 185 1958 185 1862 185 
C 1478 185 1472 230 1472 293 
C 1472 325 1478 369 1485 401 
L 1894 2022 
z
M 2355 3917 
C 2413 4153 2438 4166 2688 4166 
L 3322 4166 
C 3802 4166 4198 4013 4198 3534 
C 4198 3369 4115 2826 3821 2533 
C 3712 2418 3405 2176 2822 2176 
L 1920 2176 
L 2355 3917 
z
" transform="scale(0.015625)"/>
     </defs>
     <use xlink:href="#CMMI12-50" transform="scale(0.996264)"/>
    </g>
   </g>
   <g id="text_2">
    <!-- $Q$ -->
    <g transform="translate(175.053757 145.970626) scale(0.2 -0.2)">
     <defs>
      <path id="CMMI12-51" d="M 2726 45 
C 3827 493 4646 1654 4646 2798 
C 4646 3840 3955 4480 3059 4480 
C 1690 4480 307 3025 307 1566 
C 307 565 973 -128 1901 -128 
C 2118 -128 2330 -96 2534 -32 
C 2496 -406 2496 -437 2496 -554 
C 2496 -736 2496 -1216 3008 -1216 
C 3770 -1216 4051 -39 4051 0 
C 4051 38 4026 64 3994 64 
C 3955 64 3942 32 3923 -39 
C 3782 -431 3450 -653 3168 -653 
C 2842 -653 2758 -437 2726 45 
z
M 1574 77 
C 1069 253 826 792 826 1376 
C 826 1819 992 2659 1414 3297 
C 1888 4017 2522 4339 3021 4339 
C 3686 4339 4134 3808 4134 2987 
C 4134 2520 3910 953 2707 240 
C 2675 571 2586 960 2163 960 
C 1818 960 1523 610 1523 292 
C 1523 220 1549 123 1574 77 
z
M 2547 155 
C 2317 51 2118 12 1939 12 
C 1875 12 1651 12 1651 298 
C 1651 532 1875 831 2163 831 
C 2483 831 2554 610 2554 285 
C 2554 246 2554 194 2547 155 
z
" transform="scale(0.015625)"/>
     </defs>
     <use xlink:href="#CMMI12-51" transform="scale(0.996264)"/>
    </g>
   </g>
   <g id="text_3">
    <!-- $P*Q$ -->
    <g transform="translate(228.490756 161.556417) scale(0.2 -0.2)">
     <defs>
      <path id="CMSY10-3" d="M 1760 2762 
C 1766 2853 1766 3008 1600 3008 
C 1498 3008 1414 2924 1434 2840 
L 1434 2755 
L 1523 1740 
L 704 2349 
C 646 2382 634 2395 589 2395 
C 499 2395 416 2303 416 2212 
C 416 2107 480 2081 544 2048 
L 1453 1603 
L 570 1164 
C 467 1112 416 1085 416 987 
C 416 889 499 804 589 804 
C 634 804 646 804 806 928 
L 1523 1459 
L 1427 359 
C 1427 224 1542 192 1594 192 
C 1670 192 1766 236 1766 359 
L 1670 1459 
L 2490 850 
C 2547 817 2560 804 2605 804 
C 2694 804 2778 896 2778 987 
C 2778 1085 2720 1118 2643 1157 
C 2259 1354 2246 1354 1741 1596 
L 2624 2035 
C 2726 2087 2778 2113 2778 2212 
C 2778 2310 2694 2395 2605 2395 
C 2560 2395 2547 2395 2387 2271 
L 1670 1740 
L 1760 2762 
z
" transform="scale(0.015625)"/>
     </defs>
     <use xlink:href="#CMMI12-50" transform="scale(0.996264)"/>
     <use xlink:href="#CMSY10-3" transform="translate(98.565028 0) scale(0.996264)"/>
     <use xlink:href="#CMMI12-51" transform="translate(170.517618 0) scale(0.996264)"/>
    </g>
   </g>
   <g id="PathCollection_2">
    <g clip-path="url(#p9affff8f89)">
     <use xlink:href="#m4dc109c4bd" x="58.239344" y="178.658296" style="stroke: #000000"/>
     <use xlink:href="#m4dc109c4bd" x="127.73376" y="175.064626" style="stroke: #000000"/>
    </g>
   </g>
   <g id="text_4">
    <!-- $R$ -->
    <g transform="translate(121.6512 167.081266) scale(0.2 -0.2)">
     <defs>
      <path id="CMMI12-52" d="M 2355 3917 
C 2413 4153 2438 4166 2688 4166 
L 3149 4166 
C 3699 4166 4109 4000 4109 3503 
C 4109 3177 3942 2240 2656 2240 
L 1933 2240 
L 2355 3917 
z
M 3245 2163 
C 4038 2335 4659 2846 4659 3394 
C 4659 3892 4154 4352 3264 4352 
L 1530 4352 
C 1402 4352 1344 4352 1344 4230 
C 1344 4166 1389 4166 1510 4166 
C 1894 4166 1894 4115 1894 4045 
C 1894 4032 1894 3994 1869 3898 
L 1005 475 
C 947 253 934 190 493 190 
C 346 190 301 190 301 69 
C 301 6 371 6 390 6 
C 506 6 640 19 762 19 
L 1517 19 
C 1632 19 1766 6 1882 6 
C 1933 6 2003 6 2003 126 
C 2003 190 1946 190 1850 190 
C 1459 190 1459 241 1459 304 
C 1459 310 1459 355 1472 405 
L 1901 2112 
L 2669 2112 
C 3277 2112 3392 1731 3392 1522 
C 3392 1426 3328 1179 3283 1014 
C 3213 723 3194 653 3194 532 
C 3194 82 3565 -128 3994 -128 
C 4512 -128 4736 501 4736 589 
C 4736 634 4704 653 4666 653 
C 4614 653 4602 615 4589 564 
C 4435 114 4173 0 4013 0 
C 3853 0 3750 69 3750 355 
C 3750 507 3827 1084 3834 1116 
C 3866 1350 3866 1376 3866 1426 
C 3866 1889 3488 2086 3245 2163 
z
" transform="scale(0.015625)"/>
     </defs>
     <use xlink:href="#CMMI12-52" transform="scale(0.996264)"/>
    </g>
   </g>
   <g id="text_5">
    <!-- $(P*Q)*R$ -->
    <g transform="translate(9.578864 199.947256) scale(0.2 -0.2)">
     <defs>
      <path id="CMR17-28" d="M 1958 -1562 
C 1958 -1556 1958 -1543 1939 -1524 
C 1645 -1223 858 -403 858 1596 
C 858 3595 1632 4408 1946 4729 
C 1946 4735 1958 4748 1958 4767 
C 1958 4787 1939 4800 1914 4800 
C 1843 4800 1299 4325 986 3620 
C 666 2909 576 2218 576 1603 
C 576 1141 621 360 1005 -467 
C 1312 -1133 1837 -1600 1914 -1600 
C 1946 -1600 1958 -1588 1958 -1562 
z
" transform="scale(0.015625)"/>
      <path id="CMR17-29" d="M 1683 1596 
C 1683 2057 1638 2839 1254 3665 
C 947 4332 422 4800 346 4800 
C 326 4800 301 4793 301 4761 
C 301 4748 307 4742 314 4729 
C 621 4408 1402 3595 1402 1603 
C 1402 -396 627 -1210 314 -1530 
C 307 -1543 301 -1549 301 -1562 
C 301 -1594 326 -1600 346 -1600 
C 416 -1600 960 -1127 1274 -422 
C 1594 289 1683 981 1683 1596 
z
" transform="scale(0.015625)"/>
     </defs>
     <use xlink:href="#CMR17-28" transform="scale(0.996264)"/>
     <use xlink:href="#CMMI12-50" transform="translate(35.280768 0) scale(0.996264)"/>
     <use xlink:href="#CMSY10-3" transform="translate(133.845796 0) scale(0.996264)"/>
     <use xlink:href="#CMMI12-51" transform="translate(205.798385 0) scale(0.996264)"/>
     <use xlink:href="#CMR17-29" transform="translate(283.058784 0) scale(0.996264)"/>
     <use xlink:href="#CMSY10-3" transform="translate(340.478759 0) scale(0.996264)"/>
     <use xlink:href="#CMMI12-52" transform="translate(412.431349 0) scale(0.996264)"/>
    </g>
   </g>
  </g>
 </g>
 <defs>
  <clipPath id="p9affff8f89">
   <rect x="0" y="-0" width="322.37568" height="266.112"/>
  </clipPath>
 </defs>
</svg>
