<?xml version="1.0" encoding="utf-8" standalone="no"?>
<!DOCTYPE svg PUBLIC "-//W3C//DTD SVG 1.1//EN"
  "http://www.w3.org/Graphics/SVG/1.1/DTD/svg11.dtd">
<svg xmlns:xlink="http://www.w3.org/1999/xlink" width="298.04544pt" height="266.112pt" viewBox="0 0 298.04544 266.112" xmlns="http://www.w3.org/2000/svg" version="1.1">
 <metadata>
  <rdf:RDF xmlns:dc="http://purl.org/dc/elements/1.1/" xmlns:cc="http://creativecommons.org/ns#" xmlns:rdf="http://www.w3.org/1999/02/22-rdf-syntax-ns#">
   <cc:Work>
    <dc:type rdf:resource="http://purl.org/dc/dcmitype/StillImage"/>
    <dc:date>2024-08-22T12:17:20.561124</dc:date>
    <dc:format>image/svg+xml</dc:format>
    <dc:creator>
     <cc:Agent>
      <dc:title>Matplotlib v3.8.3, https://matplotlib.org/</dc:title>
     </cc:Agent>
    </dc:creator>
   </cc:Work>
  </rdf:RDF>
 </metadata>
 <defs>
  <style type="text/css">*{stroke-linejoin: round; stroke-linecap: butt}</style>
 </defs>
 <g id="figure_1">
  <g id="patch_1">
   <path d="M 0 266.112 
L 298.04544 266.112 
L 298.04544 0 
L 0 0 
z
" style="fill: #ffffff"/>
  </g>
  <g id="axes_1">
   <g id="PathCollection_1">
    <defs>
     <path id="mdb6c15c754" d="M 0 3 
C 0.795609 3 1.55874 2.683901 2.12132 2.12132 
C 2.683901 1.55874 3 0.795609 3 0 
C 3 -0.795609 2.683901 -1.55874 2.12132 -2.12132 
C 1.55874 -2.683901 0.795609 -3 0 -3 
C -0.795609 -3 -1.55874 -2.683901 -2.12132 -2.12132 
C -2.683901 -1.55874 -3 -0.795609 -3 0 
C -3 0.795609 -2.683901 1.55874 -2.12132 2.12132 
C -1.55874 2.683901 -0.795609 3 0 3 
z
" style="stroke: #000000"/>
    </defs>
    <g clip-path="url(#pe38968c86e)">
     <use xlink:href="#mdb6c15c754" x="24.138032" y="108.401256" style="stroke: #000000"/>
     <use xlink:href="#mdb6c15c754" x="143.490193" y="164.634486" style="stroke: #000000"/>
     <use xlink:href="#mdb6c15c754" x="249.620994" y="214.638421" style="stroke: #000000"/>
    </g>
   </g>
   <g id="QuadContourSet_1">
    <path d="M 298.04544 264.767863 
L 282.127444 247.296 
L 273.96096 238.666973 
L 261.91872 226.453382 
L 246.86592 212.083283 
L 237.83424 203.992067 
L 228.80256 196.358969 
L 214.634064 185.472 
L 213.74976 184.81095 
L 206.775824 180.096 
L 202.503502 177.408 
L 201.70752 176.898481 
L 195.6864 173.474559 
L 189.66528 170.482152 
L 183.64416 167.961868 
L 177.62304 165.967851 
L 174.61248 165.167334 
L 171.60192 164.523438 
L 168.080475 163.968 
L 165.5808 163.646798 
L 162.57024 163.404672 
L 159.55968 163.298558 
L 156.54912 163.319744 
L 150.528 163.709168 
L 144.50688 164.458644 
L 138.48576 165.4936 
L 129.45408 167.418459 
L 102.35904 173.527749 
L 95.881172 174.72 
L 90.3168 175.54242 
L 84.29568 176.23503 
L 78.27456 176.678774 
L 72.25344 176.825737 
L 66.23232 176.628003 
L 60.2112 176.037658 
L 57.20064 175.580283 
L 52.948879 174.72 
L 51.17952 174.283925 
L 48.16896 173.405304 
L 44.25437 172.032 
L 42.14784 171.154059 
L 38.404353 169.344 
L 36.12672 168.044134 
L 33.11616 166.087748 
L 30.1056 163.781422 
L 27.09504 161.010589 
L 24.08448 157.609767 
L 22.798439 155.904 
L 21.002971 153.216 
L 19.548476 150.528 
L 18.06336 147.223173 
L 17.321929 145.152 
L 16.552137 142.464 
L 15.974792 139.776 
L 15.589896 137.088 
L 15.397448 134.4 
L 15.397448 131.712 
L 15.589896 129.024 
L 15.974792 126.336 
L 16.552137 123.648 
L 17.321929 120.96 
L 18.301766 118.272 
L 19.548476 115.584 
L 21.07392 112.781271 
L 22.798439 110.208 
L 24.89032 107.52 
L 27.363522 104.832 
L 30.330369 102.144 
L 33.941789 99.456 
L 36.12672 98.067866 
L 39.13728 96.37959 
L 44.25437 94.08 
L 45.1584 93.728345 
L 48.16896 92.706696 
L 52.948879 91.392 
L 54.19008 91.105213 
L 57.20064 90.531717 
L 63.22176 89.727098 
L 69.24288 89.339048 
L 75.264 89.319652 
L 81.28512 89.620995 
L 87.30624 90.195161 
L 93.32736 90.994236 
L 99.34848 92.008857 
L 109.636675 94.08 
L 138.48576 100.6184 
L 144.50688 101.653356 
L 150.528 102.402832 
L 156.54912 102.792256 
L 159.55968 102.813442 
L 162.57024 102.707328 
L 165.5808 102.465202 
L 171.60192 101.588562 
L 174.61248 100.944666 
L 177.62304 100.144149 
L 183.64416 98.150132 
L 189.66528 95.629848 
L 195.6864 92.637441 
L 202.503502 88.704 
L 206.775824 86.016 
L 207.72864 85.423961 
L 214.634064 80.64 
L 219.77088 76.884363 
L 228.80256 69.753031 
L 235.052911 64.512 
L 241.207463 59.136 
L 247.147013 53.76 
L 255.8976 45.52839 
L 264.92928 36.663531 
L 277.067633 24.192 
L 287.107663 13.44 
L 295.03488 4.719582 
L 298.04544 1.344137 
L 298.04544 1.344137 
" clip-path="url(#pe38968c86e)" style="fill: none; stroke: #000000; stroke-width: 1.5"/>
   </g>
   <g id="line2d_1">
    <path d="M -1 96.557375 
L 299.04544 237.924938 
" clip-path="url(#pe38968c86e)" style="fill: none; stroke: #000000; stroke-width: 1.5; stroke-linecap: square"/>
   </g>
   <g id="text_1">
    <!-- $P$ -->
    <g transform="translate(18.055472 100.417896) scale(0.2 -0.2)">
     <defs>
      <path id="CMMI12-50" d="M 1894 2022 
L 2970 2022 
C 3853 2022 4736 2673 4736 3400 
C 4736 3898 4314 4352 3507 4352 
L 1530 4352 
C 1408 4352 1350 4352 1350 4230 
C 1350 4166 1408 4166 1504 4166 
C 1894 4166 1894 4115 1894 4045 
C 1894 4032 1894 3994 1869 3898 
L 1005 471 
C 947 249 934 185 486 185 
C 365 185 301 185 301 70 
C 301 0 358 0 397 0 
C 518 0 646 12 768 12 
L 1517 12 
C 1638 12 1773 0 1894 0 
C 1946 0 2016 0 2016 121 
C 2016 185 1958 185 1862 185 
C 1478 185 1472 230 1472 293 
C 1472 325 1478 369 1485 401 
L 1894 2022 
z
M 2355 3917 
C 2413 4153 2438 4166 2688 4166 
L 3322 4166 
C 3802 4166 4198 4013 4198 3534 
C 4198 3369 4115 2826 3821 2533 
C 3712 2418 3405 2176 2822 2176 
L 1920 2176 
L 2355 3917 
z
" transform="scale(0.015625)"/>
     </defs>
     <use xlink:href="#CMMI12-50" transform="scale(0.996264)"/>
    </g>
   </g>
   <g id="text_2">
    <!-- $Q$ -->
    <g transform="translate(137.407633 156.651126) scale(0.2 -0.2)">
     <defs>
      <path id="CMMI12-51" d="M 2726 45 
C 3827 493 4646 1654 4646 2798 
C 4646 3840 3955 4480 3059 4480 
C 1690 4480 307 3025 307 1566 
C 307 565 973 -128 1901 -128 
C 2118 -128 2330 -96 2534 -32 
C 2496 -406 2496 -437 2496 -554 
C 2496 -736 2496 -1216 3008 -1216 
C 3770 -1216 4051 -39 4051 0 
C 4051 38 4026 64 3994 64 
C 3955 64 3942 32 3923 -39 
C 3782 -431 3450 -653 3168 -653 
C 2842 -653 2758 -437 2726 45 
z
M 1574 77 
C 1069 253 826 792 826 1376 
C 826 1819 992 2659 1414 3297 
C 1888 4017 2522 4339 3021 4339 
C 3686 4339 4134 3808 4134 2987 
C 4134 2520 3910 953 2707 240 
C 2675 571 2586 960 2163 960 
C 1818 960 1523 610 1523 292 
C 1523 220 1549 123 1574 77 
z
M 2547 155 
C 2317 51 2118 12 1939 12 
C 1875 12 1651 12 1651 298 
C 1651 532 1875 831 2163 831 
C 2483 831 2554 610 2554 285 
C 2554 246 2554 194 2547 155 
z
" transform="scale(0.015625)"/>
     </defs>
     <use xlink:href="#CMMI12-51" transform="scale(0.996264)"/>
    </g>
   </g>
   <g id="text_3">
    <!-- $P*Q$ -->
    <g transform="translate(243.538434 206.655061) scale(0.2 -0.2)">
     <defs>
      <path id="CMSY10-3" d="M 1760 2762 
C 1766 2853 1766 3008 1600 3008 
C 1498 3008 1414 2924 1434 2840 
L 1434 2755 
L 1523 1740 
L 704 2349 
C 646 2382 634 2395 589 2395 
C 499 2395 416 2303 416 2212 
C 416 2107 480 2081 544 2048 
L 1453 1603 
L 570 1164 
C 467 1112 416 1085 416 987 
C 416 889 499 804 589 804 
C 634 804 646 804 806 928 
L 1523 1459 
L 1427 359 
C 1427 224 1542 192 1594 192 
C 1670 192 1766 236 1766 359 
L 1670 1459 
L 2490 850 
C 2547 817 2560 804 2605 804 
C 2694 804 2778 896 2778 987 
C 2778 1085 2720 1118 2643 1157 
C 2259 1354 2246 1354 1741 1596 
L 2624 2035 
C 2726 2087 2778 2113 2778 2212 
C 2778 2310 2694 2395 2605 2395 
C 2560 2395 2547 2395 2387 2271 
L 1670 1740 
L 1760 2762 
z
" transform="scale(0.015625)"/>
     </defs>
     <use xlink:href="#CMMI12-50" transform="scale(0.996264)"/>
     <use xlink:href="#CMSY10-3" transform="translate(98.565028 0) scale(0.996264)"/>
     <use xlink:href="#CMMI12-51" transform="translate(170.517618 0) scale(0.996264)"/>
    </g>
   </g>
  </g>
 </g>
 <defs>
  <clipPath id="pe38968c86e">
   <rect x="0" y="-0" width="298.04544" height="266.112"/>
  </clipPath>
 </defs>
</svg>
